<?xml version="1.0" encoding="utf-8"?>
<!-- Generator: Adobe Illustrator 21.0.2, SVG Export Plug-In . SVG Version: 6.00 Build 0)  -->
<svg version="1.1" id="Layer_1" xmlns="http://www.w3.org/2000/svg" xmlns:xlink="http://www.w3.org/1999/xlink" x="0px" y="0px"
	 viewBox="0 0 32 32" style="enable-background:new 0 0 32 32;" xml:space="preserve">
<style type="text/css">
	.st0{fill:#005590;}
</style>
<g>
	<g>
		<g>
			<path class="st0" d="M18.4,31H4.6C2.1,31,0,28.8,0,26c0-2.6,1.9-4.8,4.4-4.9c0.8-3.5,3.8-6,7.2-6c2.7,0,5.1,1.6,6.4,4
				c3.3-0.3,6,2.5,6,5.9C24,28.3,21.5,31,18.4,31z M4.6,23c-1.5,0-2.7,1.4-2.7,3.1s1.2,3.1,2.7,3.1h13.8c2,0,3.7-1.8,3.7-4.1
				c0-2.5-2.1-4.6-4.5-4c-0.4,0.1-0.9-0.1-1.1-0.6c-0.9-2.2-2.9-3.6-5-3.6c-2.7,0-5.1,2.3-5.4,5.2c0,0.3-0.2,0.5-0.4,0.6
				C5.5,23,5.3,23,5,23C4.9,23,4.7,23,4.6,23z"/>
		</g>
	</g>
	<g>
		<path class="st0" d="M21,4.9c-0.5,0-0.9-0.4-0.9-0.9v-2C20.1,1.4,20.5,1,21,1C21.5,1,22,1.4,22,1.9v2C22,4.5,21.5,4.9,21,4.9z"/>
	</g>
	<g>
		<path class="st0" d="M31.1,12.9h-2c-0.5,0-0.9-0.4-0.9-0.9s0.4-0.9,0.9-0.9h2c0.5,0,0.9,0.4,0.9,0.9S31.6,12.9,31.1,12.9z"/>
	</g>
	<g>
		<path class="st0" d="M13,12.9h-2c-0.5,0-0.9-0.4-0.9-0.9S10.5,11,11,11h2c0.5,0,0.9,0.4,0.9,0.9S13.5,12.9,13,12.9z"/>
	</g>
	<g>
		<path class="st0" d="M26.7,7.2c-0.2,0-0.5-0.1-0.7-0.3c-0.4-0.4-0.4-1,0-1.3l1.4-1.4c0.4-0.4,1-0.4,1.3,0c0.4,0.4,0.4,1,0,1.3
			L27.4,7C27.2,7.1,26.9,7.2,26.7,7.2z"/>
	</g>
	<g>
		<path class="st0" d="M28.1,20c-0.2,0-0.5-0.1-0.7-0.3L26,18.3c-0.4-0.4-0.4-1,0-1.3c0.4-0.4,1-0.4,1.3,0l1.4,1.4
			c0.4,0.4,0.4,1,0,1.3C28.6,19.9,28.4,20,28.1,20z"/>
	</g>
	<g>
		<path class="st0" d="M15.3,7.2c-0.2,0-0.5-0.1-0.7-0.3l-1.4-1.4c-0.4-0.4-0.4-1,0-1.3s1-0.4,1.3,0L16,5.6c0.4,0.4,0.4,1,0,1.3
			C15.8,7.1,15.6,7.2,15.3,7.2z"/>
	</g>
	<g>
		<path class="st0" d="M21,17.9c-3.3,0-6-2.7-6-6s2.7-6,6-6s6,2.7,6,6S24.3,17.9,21,17.9z M21,7.9c-2.3,0-4.1,1.8-4.1,4.1
			c0,2.3,1.8,4.1,4.1,4.1c2.3,0,4.1-1.8,4.1-4.1C25.1,9.7,23.3,7.9,21,7.9z"/>
	</g>
</g>
</svg>
